<?xml version="1.0" encoding="UTF-8" standalone="no"?>
<svg
   xmlns:dc="http://purl.org/dc/elements/1.1/"
   xmlns:cc="http://creativecommons.org/ns#"
   xmlns:rdf="http://www.w3.org/1999/02/22-rdf-syntax-ns#"
   xmlns:svg="http://www.w3.org/2000/svg"
   xmlns="http://www.w3.org/2000/svg"
   xmlns:sodipodi="http://sodipodi.sourceforge.net/DTD/sodipodi-0.dtd"
   xmlns:inkscape="http://www.inkscape.org/namespaces/inkscape"
   version="1.1"
   x="0px"
   y="0px"
   viewBox="0 0 500 500"
   style="enable-background:new 0 0 500 500;"
   xml:space="preserve"
   id="svg2"
   inkscape:version="0.92.2 5c3e80d, 2017-08-06"
   sodipodi:docname="MenuIcon.svg"><metadata
     id="metadata14"><rdf:RDF><cc:Work
         rdf:about=""><dc:format>image/svg+xml</dc:format><dc:type
           rdf:resource="http://purl.org/dc/dcmitype/StillImage" /><dc:title></dc:title></cc:Work></rdf:RDF></metadata><defs
     id="defs12"><clipPath
       clipPathUnits="userSpaceOnUse"
       id="clipPath4148"><g
         id="g4150"
         style="fill:#000000;fill-opacity:0.70196078;stroke:none"
         transform="matrix(0.99998928,0,0,0.99998928,-0.01497322,0.02529433)"><g
           id="g4152"
           style="fill:#000000;fill-opacity:0.70196078;stroke:none"><path
             id="path4154"
             class="st0"
             d="m 396.9,47.7 2.6,53.1 c 43,47.5 60,114.8 38.6,178.1 C 406.1,373.3 300.7,423 202.7,389.8 104.7,356.6 51.1,253.1 83,158.7 104.5,95.2 159.2,52 222.5,40.5 L 256.7,0.1 C 150,-2.8 49.3,63.4 13.3,169.9 -31,300.6 39.1,442.5 169.9,486.7 300.7,530.9 442.5,460.9 486.8,330.1 522.7,223.9 483.1,110.3 396.9,47.7 Z"
             style="clip-rule:evenodd;fill:#000000;fill-opacity:0.70196078;fill-rule:evenodd;stroke:none"
             inkscape:connector-curvature="0" /></g><path
           id="path4156"
           class="st0"
           d="m 335.6,204.3 -1.8,-74.2 -1.5,-42.7 -1,-37 c 0,0 0.2,-17.8 -0.4,-22 -0.1,-0.9 -0.4,-1.6 -0.7,-2.2 0,-0.1 -0.1,-0.2 -0.1,-0.3 0,-0.1 -0.1,-0.2 -0.1,-0.2 -0.7,-1.2 -1.8,-2.1 -3.1,-2.6 -1.4,-0.5 -2.9,-0.4 -4.2,0.2 0,0 -0.1,0 -0.1,0 -0.2,0.1 -0.3,0.1 -0.4,0.2 -0.6,0.3 -1.2,0.7 -1.8,1.3 -3,3 -13.7,17.2 -13.7,17.2 l -23.2,28.8 -27.1,33 -46.5,57.8 c 0,0 -21.3,26.6 -16.6,59.4 4.7,32.8 29.1,48.7 48,55.1 18.9,6.4 48,8.5 71.6,-14.7 23.5,-23 22.7,-57.1 22.7,-57.1 z"
           style="clip-rule:evenodd;fill:#000000;fill-opacity:0.70196078;fill-rule:evenodd;stroke:none"
           inkscape:connector-curvature="0" /></g></clipPath></defs><sodipodi:namedview
     pagecolor="#ffffff"
     bordercolor="#666666"
     borderopacity="1"
     objecttolerance="10"
     gridtolerance="10"
     guidetolerance="10"
     inkscape:pageopacity="0"
     inkscape:pageshadow="2"
     inkscape:window-width="1278"
     inkscape:window-height="856"
     id="namedview10"
     showgrid="false"
     inkscape:zoom="0.944"
     inkscape:cx="251.72646"
     inkscape:cy="220.79577"
     inkscape:window-x="-4"
     inkscape:window-y="0"
     inkscape:window-maximized="0"
     inkscape:current-layer="svg2" /><style
     type="text/css"
     id="style4"> .st0{fill-rule:evenodd;clip-rule:evenodd;fill:#222222;} </style><path
     style="fill:#4d4d4d;fill-opacity:1;stroke-width:1.53770256"
     d="m 238.69731,482.257 c -0.45678,-0.70104 -7.42607,-1.66641 -15.48734,-2.14528 -20.09743,-1.19389 -58.07619,-8.98351 -58.07619,-11.91172 0,-0.62805 -1.12427,-1.1419 -2.49842,-1.1419 -6.95358,0 -42.00282,-17.71223 -60.40868,-30.52771 -4.277045,-2.97797 -8.756875,-5.4145 -9.955185,-5.4145 -1.19829,0 -11.76059,9.16884 -23.47176,20.3752 -27.34572,26.16698 -31.41823,29.04535 -41.09528,29.04535 -6.0864,0 -8.67922,-0.91039 -13.86166,-4.86718 -3.54588,-2.70726 -6.8423397,-6.74675 -7.4282897,-9.10262 -2.41713,-9.71834 -0.34115,-12.65874 27.6725897,-39.19562 14.76208,-13.98382 26.84014,-26.34931 26.84014,-27.47886 0,-1.12952 -3.5126,-6.63443 -7.80579,-12.2331 -9.59879,-12.51765 -22.59131,-35.61646 -27.12359,-48.2218 -1.86064,-5.17486 -4.01847,-10.17387 -4.79519,-11.10888 -0.77671,-0.93502 -3.28861,-10.0329 -5.58198,-20.21748 -3.68662,-16.37188 -4.17358,-21.90125 -4.20264,-47.72054 -0.0293,-26.06673 0.41883,-31.19217 4.17297,-47.72418 2.31321,-10.18662 4.83097,-19.2845 5.595,-20.21749 0.76404,-0.93301 3.33995,-7.0877 5.72423,-13.67711 2.38429,-6.58941 7.10575,-16.40172 10.49216,-21.80511 3.38639,-5.40342 6.15707,-10.3529 6.15707,-10.99886 0,-0.64598 4.39193,-7.00767 9.75986,-14.1371 10.21629,-13.56885 45.53919,-48.156049 49.180365,-48.156049 1.16054,0 4.18238,-2.003025 6.71518,-4.451177 2.53278,-2.44815 5.15079,-4.469894 5.81777,-4.492781 0.66699,-0.0229 5.84503,-2.710936 11.50675,-5.97345 33.75362,-19.450214 75.93011,-29.926047 120.6965,-29.978708 17.16968,-0.02021 47.08911,2.29151 48.71221,3.763723 0.30591,0.277459 -3.61391,5.100148 -8.71067,10.717085 -5.0968,5.616936 -11.00447,12.904954 -13.1282,16.195588 -2.1237,3.290634 -4.59839,6.656873 -5.49927,7.480554 -0.92493,0.845649 -11.60438,1.551324 -24.53185,1.621022 -24.68759,0.133172 -46.24859,3.195729 -57.87973,8.221516 -3.67477,1.587842 -7.44069,2.887 -8.36873,2.887 -4.06876,0 -35.54049,16.119767 -46.44525,23.789167 -21.6101,15.19859 -52.019605,49.52292 -58.171935,65.66086 -1.02707,2.69406 -2.40424,4.8983 -3.06041,4.8983 -1.43004,0 -8.06703,19.62703 -10.88798,32.19823 -1.109,4.94204 -2.7478,9.88661 -3.6418,10.98794 -2.51569,3.09908 -3.41694,52.88773 -1.03379,57.11139 1.87123,3.31641 3.22168,2.22608 37.69111,-30.43171 l 35.750335,-33.87136 7.75065,2.22025 c 9.72243,2.78507 14.70144,2.78506 28.56433,-1.4e-4 6.0784,-1.22123 14.24887,-2.206 18.15662,-2.18841 l 7.10499,0.0321 -60.37136,56.47614 -60.371365,56.47613 5.37965,10.05274 c 2.9588,5.52901 7.03647,12.26817 9.0615,14.97593 2.02501,2.70773 4.46312,6.271 5.41802,7.91837 0.95488,1.64734 3.0846,3.18333 4.73268,3.41329 2.12184,0.29607 20.017775,-15.76927 61.307705,-55.03652 32.07113,-30.50012 58.86252,-55.4547 59.53643,-55.4547 0.6739,0 3.0997,3.03378 5.39066,6.74175 2.77175,4.48609 7.54835,8.85139 14.27654,13.04717 5.56112,3.46797 10.11113,6.71084 10.11113,7.20636 0,0.49551 -26.64372,25.7545 -59.20825,56.13107 -32.56454,30.37654 -59.20827,56.20211 -59.20827,57.39017 0,1.18804 1.72172,3.67357 3.82606,5.52337 5.01582,4.40917 26.68497,17.19767 29.14014,17.19767 1.05207,0 3.56502,-1.51631 5.58433,-3.36959 2.01934,-1.85326 28.80837,-26.95666 59.53122,-55.78531 53.65073,-50.34293 55.87866,-52.23128 56.33855,-47.75142 0.26334,2.56538 -0.62479,9.1779 -1.9736,14.69447 -3.33704,13.64804 -3.0862,20.00047 1.10007,27.8601 l 3.55249,6.66977 -37.49857,35.15327 c -20.62421,19.33428 -37.49855,36.00643 -37.49855,37.0492 0,3.39331 8.153,4.20155 41.05105,4.06947 29.47371,-0.11833 33.70807,-0.47146 47.36661,-3.95032 16.27827,-4.14612 38.18965,-12.50947 45.28603,-17.28526 2.44689,-1.64673 7.29089,-4.48806 10.76445,-6.31406 9.94318,-5.22698 21.09902,-13.88084 34.20411,-26.53299 12.41044,-11.98149 29.74081,-33.6532 29.74081,-37.19098 0,-1.09012 1.06771,-2.99475 2.37269,-4.23253 1.30497,-1.23781 4.54024,-7.51967 7.18947,-13.95971 2.64924,-6.44006 5.42485,-13.05702 6.16803,-14.70436 6.94319,-15.39045 11.12449,-53.3132 8.37985,-76.00178 -0.77213,-6.38291 -1.00643,-12.17893 -0.52059,-12.88006 0.48582,-0.70113 3.9066,-3.07094 7.60173,-5.26629 3.69513,-2.19534 11.3116,-7.68741 16.92551,-12.20462 5.61386,-4.51718 10.53274,-8.21308 10.9308,-8.21308 0.39808,0 1.55811,3.87503 2.57789,8.61116 1.01974,4.73613 2.66934,10.22949 3.6657,12.20745 2.46314,4.88966 2.49502,68.69634 0.0368,73.67739 -0.97616,1.97798 -3.34248,10.67242 -5.25851,19.32102 -3.47475,15.68439 -5.29075,20.19946 -18.3715,45.67657 -9.27319,18.06124 -27.39747,41.06097 -45.6451,57.92369 -8.21661,7.59301 -35.84084,28.18787 -37.80886,28.18787 -0.62049,0 -4.86415,2.35214 -9.43039,5.22696 -4.56623,2.87484 -13.56787,7.25078 -20.00365,9.72431 -6.43579,2.47352 -13.47768,5.44556 -15.64865,6.60455 -6.40939,3.42168 -40.67093,10.09705 -56.44521,10.99755 -8.03258,0.45855 -14.6047,1.40862 -14.6047,2.11129 0,1.66622 -18.50522,1.669 -19.5908,0.002 z"
     id="path3735"
     inkscape:connector-curvature="0" /><path
     style="fill:#4d4d4d;fill-opacity:1;stroke-width:1.53770256"
     d="m 313.54915,335.42929 c 0,-2.22918 0.88713,-4.8945 1.97141,-5.92297 1.35104,-1.28147 1.9721,-7.38436 1.97361,-19.39382 10e-4,-18.10948 -0.13295,-18.65898 -8.68167,-35.29956 l -3.94722,-7.68341 -11.84164,-0.81972 c -22.04741,-1.52622 -43.26088,-15.00714 -55.08812,-35.00789 -4.30271,-7.27618 -5.39869,-10.98745 -6.0965,-20.64412 -0.99688,-13.79522 -2.83685,-16.18515 -16.22234,-21.07073 -7.23547,-2.64089 -12.11234,-3.15831 -29.95737,-3.17838 -11.72324,-0.0127 -23.97935,0.73593 -27.23581,1.66471 -3.74031,1.06676 -5.92082,1.14484 -5.92082,0.21198 0,-3.22233 34.24023,-33.62347 42.62996,-37.85023 4.77613,-2.4062 9.03912,-4.78351 9.47331,-5.28289 1.44254,-1.65913 13.31949,-6.00255 20.52554,-7.50625 12.34278,-2.57556 23.15959,-1.84975 34.0566,2.28528 5.56733,2.11261 10.83935,3.42084 11.7156,2.90716 0.87625,-0.51366 4.53104,-6.79109 8.12172,-13.94984 3.59071,-7.15876 7.08717,-13.35964 7.7699,-13.77973 0.68274,-0.4201 3.14904,-4.36638 5.48066,-8.7695 2.33161,-4.40313 5.46182,-9.165252 6.95603,-10.582528 1.4942,-1.417261 3.10903,-3.53624 3.58853,-4.708827 3.51509,-8.59624 45.64853,-50.803744 50.71458,-50.803744 1.12671,0 3.47902,-1.264055 5.22735,-2.809005 7.13502,-6.305029 38.01145,-17.114262 56.23072,-19.685277 13.76756,-1.942809 73.27572,-1.384425 78.80513,0.739453 2.06228,0.792135 2.86247,4.020191 3.73599,15.071476 1.52371,19.276976 0.23467,63.616848 -1.95756,67.335842 -0.97107,1.64736 -3.01165,7.7126 -4.53464,13.47833 -3.2987,12.48821 -12.38597,29.54061 -22.34598,41.93259 -8.35335,10.39302 -28.86045,30.70065 -31.0022,30.70065 -0.8007,0 -4.37097,2.2409 -7.93396,4.9798 -12.04029,9.25546 -25.53148,17.16984 -46.44132,27.24402 -11.45321,5.51803 -20.82398,10.93225 -20.82398,12.03158 0,1.09931 1.41987,4.28137 3.1553,7.07123 4.57524,7.35521 6.29764,18.14672 4.54443,28.47266 -1.66092,9.78243 -8.83814,28.02736 -11.02541,28.02736 -0.77604,0 -1.41099,0.91037 -1.41099,2.02304 0,5.88239 -33.41592,39.94722 -41.04173,41.83873 -2.59408,0.64345 -3.16711,0.0523 -3.16711,-3.26747 z m 100.74568,-193.8865 c 9.79802,-6.82206 14.51307,-15.31763 14.51307,-26.14952 0,-12.4463 -1.62311,-16.61049 -9.51907,-24.421799 -8.22374,-8.13559 -13.76413,-10.292189 -26.4409,-10.292189 -10.31109,0 -17.01451,2.554351 -23.93844,9.121764 -9.23221,8.756853 -11.13909,12.997284 -11.1456,24.784924 -0.005,9.63188 0.50375,11.39098 5.12549,17.71117 2.82224,3.85944 7.26288,8.145 9.86803,9.52348 2.60517,1.37849 5.09191,2.91071 5.52611,3.40497 1.85362,2.11 6.19304,2.74006 16.6372,2.41565 10.12788,-0.31461 11.84228,-0.85424 19.37411,-6.09845 z"
     id="path3737"
     inkscape:connector-curvature="0" /></svg>